<svg width="125" height="45" viewBox="0 0 125 45" fill="none" xmlns="http://www.w3.org/2000/svg">
<path d="M35.6481 43.8404H5.31267C4.94512 43.8407 4.58492 43.7374 4.27334 43.5425C3.96176 43.3475 3.71139 43.0687 3.55091 42.7381C3.39042 42.4074 3.3263 42.0382 3.3659 41.6728C3.4055 41.3074 3.54722 40.9605 3.77482 40.6719L12.3622 29.7615C12.7637 29.2507 13.0001 28.6297 13.04 27.9813C13.0798 27.3328 12.9213 26.6875 12.5854 26.1314L0.824562 6.69883C0.488134 6.14564 0.305117 5.51284 0.294329 4.86547C0.283542 4.21811 0.44537 3.57955 0.76318 3.01546C1.08099 2.45137 1.54331 1.98212 2.1026 1.65594C2.66188 1.32976 3.29796 1.15843 3.94541 1.15957H31.6141C31.9729 1.15975 32.3248 1.2586 32.6313 1.4453C32.9377 1.63201 33.1869 1.89938 33.3516 2.21818C33.5163 2.53698 33.5902 2.89493 33.5651 3.25289C33.5401 3.61085 33.4171 3.95503 33.2096 4.2478L25.9845 14.4307C25.6251 14.9378 25.4213 15.5387 25.3981 16.1599C25.375 16.781 25.5334 17.3954 25.8541 17.9279L38.4504 38.8255C38.7527 39.3249 38.9173 39.8954 38.9274 40.4791C38.9376 41.0627 38.7929 41.6386 38.5082 42.1482C38.2234 42.6578 37.8088 43.0828 37.3064 43.3801C36.804 43.6773 36.2318 43.8362 35.6481 43.8404Z" fill="white"/>
<g clip-path="url(#clip0_2212_82)">
<path d="M56.2594 20.0245C55.6463 19.5723 55.1331 18.9984 54.7519 18.3389C54.3706 17.6794 54.1294 16.9485 54.0434 16.1915H57.038C57.2157 17.0076 57.6838 17.7313 58.3554 18.2278C59.1345 18.7427 60.058 18.9945 60.9906 18.9465C61.7558 18.9791 62.5146 18.7921 63.177 18.4075C63.4307 18.2576 63.6394 18.0423 63.7816 17.7842C63.9238 17.5261 63.994 17.2347 63.9852 16.9402C63.9894 16.7203 63.9462 16.502 63.8583 16.3005C63.7705 16.0989 63.6403 15.9188 63.4763 15.7723C63.1151 15.4497 62.6848 15.2142 62.2185 15.0836C61.7094 15.0836 61.0208 14.754 60.1524 14.5744C59.1948 14.4182 58.2526 14.1777 57.3374 13.8557C56.6199 13.6351 55.9774 13.2205 55.4808 12.6578C54.9371 12.0046 54.6592 11.1709 54.7021 10.3221C54.6637 9.69918 54.7868 9.07681 55.0596 8.51544C55.3325 7.95407 55.7458 7.4727 56.2594 7.11796C57.4708 6.32807 58.8857 5.90746 60.3319 5.90746C61.7781 5.90746 63.193 6.32807 64.4045 7.11796C65.5186 8.00213 66.257 9.27527 66.4709 10.6815H63.7457C63.5828 9.92307 63.1318 9.25749 62.4879 8.82488C61.814 8.40968 61.0331 8.2014 60.242 8.22593C59.55 8.18304 58.8614 8.35013 58.2658 8.70516C58.0451 8.83953 57.8628 9.02875 57.7369 9.25439C57.611 9.48003 57.5457 9.73439 57.5472 9.99279C57.5352 10.1934 57.5726 10.3938 57.6561 10.5766C57.7397 10.7593 57.8665 10.9187 58.026 11.0408C58.36 11.3336 58.7613 11.5394 59.194 11.6398C59.8432 11.8288 60.5033 11.9789 61.1705 12.089C62.1852 12.2669 63.1859 12.5171 64.165 12.8377C64.9273 13.0665 65.6114 13.5017 66.1415 14.0953C66.7115 14.7823 67.0001 15.6596 66.9497 16.5509C66.9697 17.1999 66.8366 17.8444 66.5608 18.4323C66.2851 19.0202 65.8747 19.5351 65.3629 19.9347C64.1128 20.8371 62.5898 21.2812 61.0506 21.1924C59.3705 21.3156 57.6943 20.907 56.2594 20.0245Z" fill="white"/>
<path d="M68.2376 3.76382C68.0562 3.59562 67.9115 3.39178 67.8125 3.16505C67.7135 2.93832 67.6623 2.69359 67.6623 2.44621C67.6623 2.19882 67.7135 1.95409 67.8125 1.72736C67.9115 1.50063 68.0562 1.29679 68.2376 1.1286C68.6114 0.780041 69.104 0.587275 69.615 0.589599C70.1369 0.576322 70.6432 0.770078 71.0227 1.1286C71.2041 1.29679 71.3489 1.50063 71.4479 1.72736C71.5468 1.95409 71.5977 2.19882 71.5977 2.44621C71.5977 2.69359 71.5468 2.93832 71.4479 3.16505C71.3489 3.39178 71.2041 3.59562 71.0227 3.76382C70.6432 4.12233 70.1369 4.31609 69.615 4.30281C69.104 4.30514 68.6114 4.11237 68.2376 3.76382ZM71.2322 21.1322H68.2376V6.36906H71.2322V21.1322Z" fill="white"/>
<path d="M72.9989 21.0427V6.2796H75.9934V8.34585C76.534 7.6203 77.2041 7.00085 77.9699 6.51903C78.654 6.1625 79.4144 5.97754 80.1859 5.98004C81.0976 5.96233 81.9974 6.18995 82.7911 6.63893C83.141 6.84202 83.4463 7.11377 83.6882 7.43802C83.9301 7.76226 84.1035 8.13229 84.1985 8.52551C84.6172 7.70927 85.2657 7.03327 86.0638 6.58099C86.862 6.12871 87.7749 5.9198 88.6903 5.98004C89.3699 5.92986 90.0525 6.02996 90.6891 6.2732C91.3257 6.51645 91.9009 6.89697 92.3739 7.38757C93.2537 8.5333 93.6894 9.9583 93.6014 11.4002V21.0427H90.6068V11.8794C90.6829 10.9764 90.4392 10.0753 89.9181 9.33392C89.6892 9.04128 89.3922 8.80922 89.0529 8.65784C88.7136 8.50646 88.3423 8.44044 87.9716 8.46556C87.5824 8.44544 87.1934 8.50998 86.8315 8.65473C86.4696 8.79949 86.1436 9.02092 85.8756 9.30394C85.4309 9.80702 85.1216 10.4151 84.9771 11.0708C84.7889 11.9765 84.7087 12.9012 84.7376 13.8257V21.0427H81.7431V11.8794C81.8029 10.9736 81.5492 10.0747 81.0244 9.33392C80.7829 9.04816 80.4794 8.82151 80.1369 8.671C79.7943 8.52049 79.4217 8.45018 79.0479 8.46556C78.6452 8.45184 78.2448 8.534 77.88 8.70518C77.5273 8.85544 77.2185 9.09229 76.9819 9.39387C76.5593 9.8617 76.2607 10.4279 76.1133 11.0408C75.9119 11.9549 75.8215 12.89 75.8439 13.8257V21.0427H72.9989Z" fill="white"/>
<path d="M106.179 6.96815C107.194 7.62275 107.995 8.55936 108.484 9.66314C109.017 10.9286 109.292 12.2879 109.292 13.6609C109.292 15.034 109.017 16.3933 108.484 17.6587C107.988 18.7662 107.189 19.7108 106.179 20.3837C105.158 21.0271 103.972 21.36 102.765 21.342C101.909 21.3625 101.059 21.1885 100.279 20.8329C99.4654 20.3808 98.7684 19.7451 98.2432 18.9763V26.5225H95.2486V6.27946H98.2432V8.34571C98.7797 7.59477 99.4747 6.97099 100.279 6.5189C101.051 6.13902 101.905 5.95399 102.765 5.9799C103.977 5.95631 105.167 6.30094 106.179 6.96815ZM100.04 9.18409C99.3877 9.64958 98.871 10.2799 98.5426 11.0107C98.1478 11.832 97.953 12.735 97.9738 13.6459C97.9561 14.5662 98.1506 15.4783 98.5426 16.3111C98.8548 17.0518 99.3748 17.6862 100.04 18.1378C100.683 18.5779 101.447 18.8081 102.226 18.7967C102.803 18.8108 103.375 18.6877 103.896 18.4379C104.417 18.188 104.87 17.8183 105.22 17.3592C105.942 16.2606 106.326 14.9751 106.326 13.6609C106.326 12.3467 105.942 11.0612 105.22 9.9627C104.87 9.50353 104.417 9.13383 103.896 8.88398C103.375 8.63412 102.803 8.51129 102.226 8.52538C101.448 8.52694 100.689 8.75586 100.04 9.18409Z" fill="white"/>
<path d="M114.084 21.0425C113.149 21.1157 112.22 20.8381 111.479 20.2638C111.159 19.8968 110.917 19.4687 110.768 19.0054C110.619 18.5422 110.565 18.0533 110.61 17.5687V0.769287H113.605V16.7901C113.568 17.2556 113.661 17.7222 113.874 18.1376C114.031 18.2892 114.221 18.403 114.429 18.4705C114.636 18.5379 114.856 18.5572 115.072 18.5269H115.911V20.9825L114.084 21.0425Z" fill="white"/>
<path d="M116.749 21.0424V6.27931H119.744V8.16571C120.26 7.44617 120.95 6.86924 121.75 6.48877C122.542 6.13931 123.4 5.96569 124.265 5.97975H124.535V8.9743H123.757C123.254 8.94201 122.75 9.01306 122.277 9.18303C121.803 9.35299 121.369 9.61831 121.002 9.96255C120.535 10.4957 120.182 11.1188 119.966 11.7936C119.75 12.4683 119.674 13.1803 119.744 13.8854V21.1621L116.749 21.0424Z" fill="white"/>
</g>
<path d="M119.173 44.5C117.563 44.5 116.192 44.1129 115.062 43.3387C113.947 42.5645 113.281 41.4341 113.064 39.9476H115.828C116.014 40.6909 116.393 41.2638 116.966 41.6664C117.539 42.069 118.275 42.2703 119.173 42.2703C119.932 42.2703 120.536 42.1309 120.985 41.8522C121.449 41.558 121.681 41.1476 121.681 40.6212C121.681 40.2031 121.534 39.8702 121.24 39.6224C120.961 39.3747 120.605 39.1889 120.172 39.065C119.754 38.9256 119.173 38.7785 118.43 38.6237C117.408 38.4224 116.572 38.2134 115.921 37.9966C115.286 37.7798 114.737 37.4237 114.272 36.9282C113.823 36.4172 113.599 35.7204 113.599 34.8378C113.599 33.599 114.063 32.6545 114.992 32.0041C115.921 31.3538 117.098 31.0286 118.523 31.0286C120.009 31.0286 121.248 31.408 122.239 32.1667C123.23 32.9254 123.841 33.9784 124.074 35.3255H121.496C121.31 34.6287 120.954 34.11 120.427 33.7693C119.901 33.4132 119.266 33.2351 118.523 33.2351C117.826 33.2351 117.276 33.3667 116.873 33.63C116.471 33.8932 116.27 34.2494 116.27 34.6984C116.27 35.07 116.401 35.372 116.664 35.6042C116.943 35.821 117.284 35.9914 117.686 36.1152C118.104 36.2236 118.677 36.3475 119.405 36.4869C120.443 36.6727 121.294 36.8817 121.96 37.114C122.626 37.3462 123.199 37.7256 123.679 38.2521C124.159 38.7631 124.399 39.4753 124.399 40.3889C124.399 41.6431 123.934 42.6419 123.005 43.3851C122.076 44.1284 120.799 44.5 119.173 44.5Z" fill="white"/>
<path d="M109.976 44.2445C108.969 44.2445 108.21 44.0122 107.7 43.5477C107.189 43.0832 106.933 42.3167 106.933 41.2483V33.5371H104.982V31.2609H106.933V26.5226H109.674V31.2609H112.322V33.5371H109.674V40.4818C109.674 40.9773 109.751 41.3489 109.906 41.5967C110.061 41.8289 110.402 41.9451 110.928 41.9451H112.298V44.2445H109.976Z" fill="white"/>
<path d="M93.2989 44.2445V31.2609H96.0396V33.0261C96.5815 32.2828 97.139 31.7641 97.7119 31.4699C98.2848 31.1757 98.9352 31.0286 99.6629 31.0286C101.614 31.0286 102.938 31.7331 103.635 33.1422C103.898 33.6532 104.06 34.1719 104.122 34.6984C104.184 35.2249 104.215 35.8752 104.215 36.6494V44.2445H101.451V36.6494C101.451 35.9681 101.397 35.4107 101.289 34.9771C101.196 34.5436 101.033 34.2029 100.801 33.9552C100.429 33.5371 99.841 33.328 99.0358 33.328C98.0913 33.328 97.3867 33.6068 96.9222 34.1642C96.6125 34.5203 96.388 34.9926 96.2486 35.581C96.1093 36.1694 96.0396 36.9746 96.0396 37.9966V44.2445H93.2989Z" fill="white"/>
<path d="M85.3851 44.5C84.1154 44.5 82.985 44.2136 81.994 43.6406C81.0185 43.0522 80.2598 42.2548 79.7178 41.2483C79.1759 40.2263 78.9049 39.0805 78.9049 37.8108C78.9049 36.634 79.1449 35.5268 79.6249 34.4894C80.1204 33.4519 80.8482 32.6158 81.8082 31.9809C82.7837 31.346 83.9528 31.0286 85.3154 31.0286C86.4613 31.0286 87.522 31.2764 88.4975 31.7719C89.4885 32.2519 90.2782 32.9874 90.8666 33.9784C91.4705 34.9694 91.7724 36.1849 91.7724 37.625V38.3217H81.6921C81.785 38.9256 81.9321 39.4057 82.1334 39.7618C82.4431 40.4896 82.8844 41.0625 83.4573 41.4806C84.0457 41.8986 84.7115 42.1077 85.4548 42.1077C86.2445 42.1077 86.9181 41.9064 87.4755 41.5038C88.0484 41.0857 88.4588 40.567 88.7065 39.9476H91.5402C91.1221 41.2947 90.3943 42.3941 89.3569 43.2458C88.3194 44.0819 86.9955 44.5 85.3851 44.5ZM88.9156 36.1617C88.8536 35.6817 88.7143 35.2713 88.4975 34.9307C88.1878 34.3887 87.762 33.9784 87.22 33.6997C86.6781 33.4055 86.0742 33.2584 85.4083 33.2584C84.727 33.2584 84.1231 33.4055 83.5967 33.6997C83.0702 33.9784 82.6444 34.3887 82.3192 34.9307C82.1179 35.2404 81.9631 35.6507 81.8547 36.1617H88.9156Z" fill="white"/>
<path d="M73.995 44.2445H71.7653L66.9806 31.2609H69.9536L72.8569 39.9244L75.8532 31.2609H78.8029L73.995 44.2445Z" fill="white"/>
<path d="M60.5236 44.5C59.2539 44.5 58.1236 44.2136 57.1326 43.6406C56.157 43.0522 55.3983 42.2548 54.8564 41.2483C54.3144 40.2263 54.0434 39.0805 54.0434 37.8108C54.0434 36.634 54.2834 35.5268 54.7634 34.4894C55.2589 33.4519 55.9867 32.6158 56.9467 31.9809C57.9223 31.346 59.0913 31.0286 60.454 31.0286C61.5998 31.0286 62.6605 31.2764 63.636 31.7719C64.627 32.2519 65.4167 32.9874 66.0051 33.9784C66.609 34.9694 66.9109 36.1849 66.9109 37.625V38.3217H56.8306C56.9235 38.9256 57.0706 39.4057 57.2719 39.7618C57.5816 40.4896 58.0229 41.0625 58.5958 41.4806C59.1842 41.8986 59.8501 42.1077 60.5933 42.1077C61.383 42.1077 62.0566 41.9064 62.614 41.5038C63.1869 41.0857 63.5973 40.567 63.845 39.9476H66.6787C66.2606 41.2947 65.5328 42.3941 64.4954 43.2458C63.4579 44.0819 62.134 44.5 60.5236 44.5ZM64.0541 36.1617C63.9921 35.6817 63.8528 35.2713 63.636 34.9307C63.3263 34.3887 62.9005 33.9784 62.3585 33.6997C61.8166 33.4055 61.2127 33.2584 60.5469 33.2584C59.8656 33.2584 59.2617 33.4055 58.7352 33.6997C58.2087 33.9784 57.7829 34.3887 57.4577 34.9307C57.2564 35.2404 57.1016 35.6507 56.9932 36.1617H64.0541Z" fill="white"/>
<defs>
<clipPath id="clip0_2212_82">
<rect width="70.4318" height="26.0226" fill="white" transform="translate(54.0434 0.5)"/>
</clipPath>
</defs>
</svg>
